<?xml version="1.0" standalone="no"?><!DOCTYPE svg PUBLIC "-//W3C//DTD SVG 1.1//EN" "http://www.w3.org/Graphics/SVG/1.1/DTD/svg11.dtd"><svg t="1700211428061" class="icon" viewBox="0 0 1024 1024" version="1.1" xmlns="http://www.w3.org/2000/svg" p-id="2685" xmlns:xlink="http://www.w3.org/1999/xlink" width="128" height="128"><path d="M512 960c-246.4 0-448-201.6-448-448s201.6-448 448-448 448 201.6 448 448-201.6 448-448 448z m226.816-498.368H483.968a24.064 24.064 0 0 0-22.4 22.4v56c0 11.2 11.264 22.4 22.4 22.4H638.08c11.2 0 22.4 11.2 22.4 22.4v11.2c0 36.352-30.848 67.2-67.2 67.2H383.168a24.064 24.064 0 0 1-22.4-22.4V427.968c0-36.48 30.848-67.2 67.2-67.2h310.848c11.2 0 22.4-11.2 22.4-22.4v-56.064a24.064 24.064 0 0 0-22.4-22.4H427.968a165.504 165.504 0 0 0-165.12 165.248V736c0 11.2 11.136 22.4 22.4 22.4h327.552a149.376 149.376 0 0 0 148.416-148.416V483.968a24.064 24.064 0 0 0-22.4-22.4z" fill="#333333" p-id="2686"></path></svg>